<?xml version="1.0" standalone="no"?>
<!DOCTYPE svg PUBLIC "-//W3C//DTD SVG 20010904//EN"
 "http://www.w3.org/TR/2001/REC-SVG-20010904/DTD/svg10.dtd">
<svg version="1.0" xmlns="http://www.w3.org/2000/svg"
 width="183.000000pt" height="100.000000pt" viewBox="0 0 183.000000 100.000000"
 preserveAspectRatio="xMidYMid meet">

<g transform="translate(0.000000,100.000000) scale(0.100000,-0.100000)"
fill="#000000" stroke="none">
<path d="M902 930 c-21 -28 -21 -30 -4 -30 10 0 31 14 47 30 l29 30 -25 0
c-16 0 -33 -11 -47 -30z"/>
<path d="M1353 870 c-40 -9 -60 -25 -79 -61 -19 -37 -18 -132 2 -170 40 -78
176 -76 224 3 38 62 21 191 -28 216 -28 15 -84 20 -119 12z m89 -60 c28 -29
30 -35 26 -87 -4 -46 -10 -61 -32 -80 -62 -53 -126 -7 -126 92 0 38 5 52 29
76 38 37 65 37 103 -1z"/>
<path d="M1644 866 c-34 -15 -44 -33 -44 -76 0 -30 29 -59 89 -92 65 -36 18
-95 -55 -69 -40 14 -53 8 -38 -16 25 -40 111 -41 153 -2 17 16 21 30 19 62 -3
35 -9 45 -38 64 -73 46 -86 60 -74 80 12 19 54 23 87 9 13 -6 17 -3 17 12 0
25 -4 28 -50 35 -20 4 -48 1 -66 -7z"/>
<path d="M70 731 l0 -141 25 0 c23 0 25 3 25 49 l0 48 47 6 c81 9 122 89 74
148 -16 20 -30 24 -95 27 l-76 4 0 -141z m128 86 c17 -13 15 -52 -4 -71 -8 -9
-29 -16 -45 -16 -28 0 -29 2 -29 48 0 27 3 52 6 55 8 8 54 -2 72 -16z"/>
<path d="M340 730 l0 -140 80 0 c63 0 80 3 80 14 0 11 -15 16 -52 18 l-53 3
-3 48 -3 47 50 0 c39 0 51 4 51 15 0 11 -12 15 -50 15 l-50 0 0 40 0 40 55 0
c48 0 55 2 55 20 0 18 -7 20 -80 20 l-80 0 0 -140z"/>
<path d="M590 730 l0 -140 25 0 c24 0 25 3 25 60 0 53 2 60 19 60 24 0 56 -39
71 -86 10 -28 16 -34 41 -34 l29 0 -15 38 c-9 20 -25 50 -36 65 l-20 28 25 20
c18 14 26 30 26 52 0 59 -30 77 -124 77 l-66 0 0 -140z m127 88 c32 -26 -4
-78 -54 -78 -20 0 -23 5 -23 43 0 24 3 47 7 51 9 9 53 -1 70 -16z"/>
<path d="M880 730 l0 -140 25 0 25 0 0 140 0 140 -25 0 -25 0 0 -140z"/>
<path d="M1000 850 c0 -17 7 -20 40 -20 l40 0 0 -120 0 -120 25 0 25 0 0 120
0 120 40 0 c33 0 40 3 40 20 0 19 -7 20 -105 20 -98 0 -105 -1 -105 -20z"/>
<path d="M642 330 c0 -19 2 -27 5 -17 2 9 2 25 0 35 -3 9 -5 1 -5 -18z"/>
<path d="M664 235 c0 -72 1 -99 3 -62 2 37 2 96 0 130 -2 34 -3 4 -3 -68z"/>
<path d="M1012 233 l2 -128 3 122 4 122 37 -5 c78 -11 80 -12 74 -41 -2 -16
-9 -34 -15 -41 -7 -9 -2 -19 17 -37 14 -13 26 -20 26 -15 0 5 -10 16 -22 24
-18 13 -19 17 -8 31 8 9 14 29 14 43 0 33 -32 52 -91 52 l-43 0 2 -127z"/>
<path d="M1660 345 c0 -8 4 -15 8 -15 5 0 9 7 9 15 0 8 -4 15 -9 15 -4 0 -8
-7 -8 -15z"/>
<path d="M1748 273 c4 -156 8 -171 10 -40 1 70 -1 127 -5 127 -5 0 -7 -39 -5
-87z"/>
<path d="M574 290 c-24 -9 -52 -40 -36 -40 6 0 15 6 19 14 4 8 24 16 43 18 27
2 30 4 15 9 -12 3 -30 3 -41 -1z"/>
<path d="M765 292 c-24 -5 -45 -21 -45 -35 0 -5 9 -2 20 8 15 13 30 16 60 12
22 -3 38 -2 35 3 -6 10 -45 17 -70 12z"/>
<path d="M1340 289 c-18 -5 -10 -7 28 -8 28 -1 52 1 52 3 0 8 -56 12 -80 5z"/>
<path d="M1212 198 c1 -95 5 -83 10 30 2 34 0 62 -4 62 -5 0 -7 -42 -6 -92z"/>
<path d="M1270 280 c-13 -8 -12 -10 3 -10 9 0 17 5 17 10 0 12 -1 12 -20 0z"/>
<path d="M1514 278 c-10 -16 -12 -58 -2 -52 4 3 8 17 8 31 0 24 3 25 45 21 25
-2 45 0 45 4 0 13 -88 9 -96 -4z"/>
<path d="M1660 205 c0 -47 3 -85 8 -85 4 0 7 38 7 85 0 47 -3 85 -7 85 -5 0
-8 -38 -8 -85z"/>
<path d="M643 210 c0 -30 2 -43 4 -27 2 15 2 39 0 55 -2 15 -4 2 -4 -28z"/>
<path d="M840 204 c0 -33 -5 -65 -12 -72 -9 -9 -9 -12 -1 -12 7 0 15 10 19 23
9 27 9 106 0 114 -3 4 -6 -21 -6 -53z"/>
<path d="M1053 243 c9 -2 25 -2 35 0 9 3 1 5 -18 5 -19 0 -27 -2 -17 -5z"/>
<path d="M523 200 c0 -22 4 -40 8 -40 5 0 9 15 9 34 0 19 -4 37 -9 40 -4 3 -8
-12 -8 -34z"/>
<path d="M1390 222 c-14 -2 -29 -8 -35 -13 -9 -9 54 -1 64 7 8 7 -4 10 -29 6z"/>
<path d="M861 204 c0 -11 3 -14 6 -6 3 7 2 16 -1 19 -3 4 -6 -2 -5 -13z"/>
<path d="M1319 193 c-13 -16 -12 -17 4 -4 16 13 21 21 13 21 -2 0 -10 -8 -17
-17z"/>
<path d="M1595 190 c3 -5 8 -10 11 -10 2 0 4 5 4 10 0 6 -5 10 -11 10 -5 0 -7
-4 -4 -10z"/>
<path d="M719 153 c6 -12 16 -25 22 -28 20 -13 15 0 -9 25 -22 23 -24 23 -13
3z"/>
<path d="M1144 153 c-6 -10 -30 -19 -60 -24 -44 -6 -45 -6 -12 -8 44 -1 88 17
88 36 0 17 -3 17 -16 -4z"/>
<path d="M530 146 c0 -2 7 -9 15 -16 13 -11 14 -10 9 4 -5 14 -24 23 -24 12z"/>
<path d="M626 135 c-11 -8 -15 -15 -9 -15 6 0 16 7 23 15 16 19 11 19 -14 0z"/>
<path d="M1592 134 c-7 -8 -8 -14 -3 -14 10 0 25 19 20 25 -2 1 -10 -3 -17
-11z"/>
<path d="M1320 130 c0 -5 5 -10 11 -10 5 0 7 5 4 10 -3 6 -8 10 -11 10 -2 0
-4 -4 -4 -10z"/>
<path d="M1400 130 c-8 -5 -10 -10 -5 -10 6 0 17 5 25 10 8 5 11 10 5 10 -5 0
-17 -5 -25 -10z"/>
<path d="M1490 130 c0 -6 7 -10 15 -10 8 0 15 2 15 4 0 2 -7 6 -15 10 -8 3
-15 1 -15 -4z"/>
</g>
</svg>
